<svg width="24" height="24" viewBox="0 0 24 24" xmlns="http://www.w3.org/2000/svg" xmlns:xlink="http://www.w3.org/1999/xlink">
    <defs>
        <path d="M13.3.71a.996.996 0 0 0-1.41 0L7 5.59 2.11.7A.996.996 0 1 0 .7 2.11L5.59 7 .7 11.89a.996.996 0 1 0 1.41 1.41L7 8.41l4.89 4.89a.996.996 0 1 0 1.41-1.41L8.41 7l4.89-4.89c.38-.38.38-1.02 0-1.4z" id="kx7khx2rta"/>
    </defs>
    <g fill="none" fill-rule="evenodd" opacity=".6">
        <path d="M0 0h24v24H0z"/>
        <g transform="translate(5 5)">
            <mask id="oucwenxb4b" fill="#fff">
                <use xlink:href="#kx7khx2rta"/>
            </mask>
            <use fill="#FFF" fill-rule="nonzero" xlink:href="#kx7khx2rta"/>
            <g mask="url(#oucwenxb4b)" fill="#E0E0FF" fill-opacity=".4">
                <path d="M-5-5h24v24H-5z"/>
            </g>
        </g>
    </g>
</svg>
