<svg width="20" height="20" viewBox="0 0 20 20" xmlns="http://www.w3.org/2000/svg">
    <g fill="none" fill-rule="evenodd" opacity=".6">
        <path d="M0 0h20v20H0z"/>
        <path d="M10 1.667a8.333 8.333 0 1 1 0 16.666 8.333 8.333 0 0 1 0-16.666zm3.48 3.294a.843.843 0 0 0-.77.487l-2.018-.429a.243.243 0 0 0-.166.03.237.237 0 0 0-.097.136L9.815 8.09c-1.296.039-2.456.419-3.295 1.033a1.23 1.23 0 0 0-.838-.341 1.219 1.219 0 0 0-.497 2.33 2.28 2.28 0 0 0-.03.37c0 1.87 2.174 3.382 4.864 3.382s4.864-1.511 4.864-3.383c0-.126-.01-.243-.03-.36.4-.195.703-.624.703-1.121 0-.673-.546-1.218-1.219-1.218a1.17 1.17 0 0 0-.838.34c-.828-.594-1.979-.984-3.246-1.032l.556-2.603 1.803.38a.868.868 0 0 0 1.735-.039.87.87 0 0 0-.867-.867zm-1.394 7.875a.25.25 0 0 1-.02.322c-.594.594-1.725.633-2.056.633-.332 0-1.472-.048-2.057-.633a.23.23 0 0 1 0-.322.23.23 0 0 1 .322 0c.37.37 1.17.507 1.744.507.576 0 1.365-.136 1.745-.507a.23.23 0 0 1 .322 0zM8.09 10a.87.87 0 0 1 .867.867.87.87 0 0 1-.867.868.87.87 0 0 1-.868-.868A.87.87 0 0 1 8.09 10zm3.82 0a.87.87 0 0 1 .868.867.87.87 0 0 1-.868.868.87.87 0 0 1-.867-.868.87.87 0 0 1 .867-.867z" fill="#E0E0FF" fill-rule="nonzero"/>
    </g>
</svg>
